<svg xmlns="http://www.w3.org/2000/svg" width="600" height="600" viewBox="0 0 600 600"><g fill="none" fill-rule="evenodd" transform="translate(-75 -75)"><rect width="750" height="750"/><path fill="#000" d="M293.5676,232.089146 L457.8581,232.089146 L540.434,89 L623,232.089146 L375.5,661 L375.3911,660.811803 L375.2921,661 L128,232.089146 L210.9917,89 L293.5676,232.089146 Z M344.3744,547.626169 L375.3911,601.381173 L406.4177,547.626169 L344.3744,547.626169 Z M423.7724,517.910854 L571.5596,261.804461 L179.4404,261.804461 L327.2276,517.910854 L423.7724,517.910854 Z M162.7193,232.089146 L259.274,232.089146 L210.9917,148.43063 L162.7193,232.089146 L162.7193,232.089146 Z M492.1517,232.089146 L588.7064,232.089146 L540.434,148.43063 L492.1517,232.089146 Z"/></g></svg>